<?xml version="1.0" encoding="UTF-8"?>
<svg width="36px" height="27px" viewBox="0 0 36 27" version="1.1" xmlns="http://www.w3.org/2000/svg" xmlns:xlink="http://www.w3.org/1999/xlink">
    <!-- Generator: Sketch 41.2 (35397) - http://www.bohemiancoding.com/sketch -->
    <title>Group 9</title>
    <desc>Created with Sketch.</desc>
    <defs></defs>
    <g id="Symbols" stroke="none" stroke-width="1" fill="none" fill-rule="evenodd">
        <g id="Group-9" transform="translate(-13.000000, -9.000000)" fill="#000000">
            <g transform="translate(13.000000, 9.000000)">
                <path d="M18.8828125,26 L22.2050781,26 L12.8535156,0.634765625 L9.72460937,0.634765625 L0.373046875,26 L3.6953125,26 L6.24414062,18.7402344 L16.3339844,18.7402344 L16.7207031,19.8388672 C16.9785169,20.5712927 17.2744124,21.4150343 17.6083984,22.3701172 C17.9423845,23.3252001 18.23828,24.1689417 18.4960937,24.9013672 L18.8828125,26 Z M11.2363281,4.484375 L11.3417969,4.484375 L15.4023437,16.0507812 L7.17578125,16.0507812 L7.58886719,14.8818359 C7.86425919,14.1025352 8.20409954,13.1386776 8.60839844,11.9902344 C9.01269733,10.8417911 9.41406051,9.69336512 9.8125,8.54492188 C10.2109395,7.39647863 10.5478502,6.43262108 10.8232422,5.65332031 L11.2363281,4.484375 Z" id="A"></path>
                <path d="M29.5976562,24.3476562 C28.8007773,24.3476562 28.166018,24.1718768 27.6933594,23.8203125 C27.2207008,23.4687482 26.984375,23.0000029 26.984375,22.4140625 C26.984375,21.1796813 27.9453029,20.5039068 29.8671875,20.3867188 L33.171875,20.1757812 L33.171875,21.1953125 C33.171875,22.101567 32.8339878,22.8535126 32.1582031,23.4511719 C31.4824185,24.0488311 30.6289114,24.3476562 29.5976562,24.3476562 Z M29.1640625,26.1171875 C30.0468794,26.1171875 30.8554651,25.9082052 31.5898438,25.4902344 C32.3242224,25.0722635 32.871092,24.5117223 33.2304688,23.8085938 L33.2773438,23.8085938 L33.2773438,26 L35.2109375,26 L35.2109375,17.328125 C35.2109375,16.0859313 34.7656295,15.0957068 33.875,14.3574219 C32.9843705,13.6191369 31.7929762,13.25 30.3007812,13.25 C28.9804621,13.25 27.8613327,13.6093714 26.9433594,14.328125 C26.025386,15.0468786 25.5507814,15.9414009 25.5195312,17.0117188 L27.4765625,17.0117188 C27.6015631,16.4101532 27.9160131,15.9355486 28.4199219,15.5878906 C28.9238306,15.2402326 29.5429651,15.0664062 30.2773438,15.0664062 C31.2070359,15.0664062 31.9218725,15.2753885 32.421875,15.6933594 C32.9218775,16.1113302 33.171875,16.7148398 33.171875,17.5039062 L33.171875,18.5585938 L29.6328125,18.7695312 C26.4765467,18.9648447 24.8984375,20.1757701 24.8984375,22.4023438 C24.8984375,23.5195368 25.2890586,24.4179654 26.0703125,25.0976562 C26.8515664,25.7773471 27.8828061,26.1171875 29.1640625,26.1171875 Z" id="a"></path>
            </g>
        </g>
    </g>
</svg>